<svg width="37" height="37" viewBox="0 0 37 37" fill="none" xmlns="http://www.w3.org/2000/svg">
<circle cx="18.5" cy="18.5" r="18.5" fill="#333333"/>
<path d="M28.9484 14.0267L28.9424 13.9745C28.9314 13.9091 28.9115 13.8461 28.8834 13.7874L25.9422 8.51678C25.9422 8.51678 25.5671 8 25.478 8H12.9444L9.175 13.6086L9.13044 13.6603L9.1244 13.6846C9.09256 13.7415 9.06641 13.8021 9.04642 13.8654L9.0311 13.9156C8.98767 14.076 8.98977 14.2474 9.03713 14.4065L9.05477 14.4628C9.07845 14.5295 9.10769 14.5905 9.14204 14.6447L18.2549 27.4954L18.2735 27.5249C18.3204 27.5921 18.3775 27.6515 18.4471 27.7058L18.5 27.7424C18.552 27.7786 18.6063 27.8076 18.6852 27.8396L18.7368 27.8587C18.8259 27.884 18.9034 27.8959 18.9791 27.8959C19.0557 27.8959 19.1304 27.8846 19.2311 27.8556L19.2929 27.8313C19.3532 27.8076 19.4075 27.7781 19.473 27.7331L19.5139 27.7047C19.5839 27.6494 19.6401 27.5895 19.6712 27.5425L28.7957 14.6783C28.8764 14.5585 28.929 14.4182 28.9489 14.2701L28.9558 14.2034L28.9596 14.1507L28.9484 14.0267V14.0267ZM24.0557 13.6846L25.3545 11.0681L26.6524 13.6846H24.0557ZM23.2767 15.2349H26.3581L21.2221 22.4775L23.2767 15.2349ZM22.5145 12.9001L20.6386 10.0671H23.9206L22.5145 12.9001ZM16.5058 15.2349H21.4538L18.9791 23.9565L16.5058 15.2349ZM16.9964 13.6846L18.9791 10.6893L20.9617 13.6846H16.9964ZM15.6001 12.6655L14.7404 10.0671H17.32L15.6001 12.6655V12.6655ZM16.737 22.478L11.6005 15.2349H14.6824L16.737 22.478ZM13.2531 11.0862L14.1132 13.6846H11.5332L13.2531 11.0862V11.0862Z" fill="white"/>
</svg>
